# xmcd
#
# Track frame offsets: 
#        150
#        16130
#        32575
#        50645
#        66335
#        82970
#        100595
#        125300
#        140405
#        164035
#        178550
#        192675
#        205660
#        219540
#        234880
#        249560
#        265965
#        284355
#        296470
#
# Disc length: 4264 seconds
#
# Revision: 0
# Processed by: cddbd v1.5.2PL0 Copyright (c) Steve Scherf et al.
# Submitted via: ExactAudioCopy v0.95b3
#
DISCID=1510a613
DTITLE=Free  - Free (1969) (Japan UICY-9131) [Japanese Mini-Lp Box-Set
DTITLE=]
DYEAR=1900
DGENRE=
TTITLE0=I'll Be Creepin'
TTITLE1=Songs Of Yesterday
TTITLE2=Lying In The Sunshine
TTITLE3=Trouble On Double Time
TTITLE4=Mouthful Of Grass
TTITLE5=Woman
TTITLE6=Free Me
TTITLE7=Broad Daylight
TTITLE8=Mourning Sad Morning
TTITLE9=Broad Daylight (Single Version)
TTITLE10=The Worm (Single Version)
TTITLE11=I'll Be Creepin' (Single Version)
TTITLE12=Sugar For Mr Morrison (Single Version)
TTITLE13=Broad Daylight (BBC Session)
TTITLE14=Songs Of Yesterday (BBC Session)
TTITLE15=Mouthfull Of Grass (Solo Version)
TTITLE16=Woman (Alternative Version)
TTITLE17=Trouble On Double Time (Early Version)
TTITLE18=Mourning Sad Morning (Alternative Version)
EXTD=
EXTT0=
EXTT1=
EXTT2=
EXTT3=
EXTT4=
EXTT5=
EXTT6=
EXTT7=
EXTT8=
EXTT9=
EXTT10=
EXTT11=
EXTT12=
EXTT13=
EXTT14=
EXTT15=
EXTT16=
EXTT17=
EXTT18=
PLAYORDER=
